<svg width="17" height="17" viewBox="0 0 17 17" fill="none" xmlns="http://www.w3.org/2000/svg">
<path d="M14.9329 4.41198H10.1815V3.05444H14.9329V4.41198ZM16.0868 11.1996C15.8153 12.082 14.7292 13.2359 12.6251 13.2359C10.5209 13.2359 8.82396 12.082 8.82396 9.36697C8.82396 6.71978 10.3851 5.36225 12.5572 5.36225C14.6614 5.36225 15.951 6.58403 16.2225 8.34882C16.2904 8.68821 16.2904 9.16334 16.2904 9.84211H10.8603C10.9281 12.0142 13.2359 12.082 13.9826 11.1996H16.0868ZM10.8603 8.48458H14.2541C14.1862 7.46643 13.5075 6.99129 12.5572 6.99129C11.6069 6.99129 11.0639 7.46643 10.8603 8.48458ZM4.41198 13.2359H0V3.05444H4.75137C8.48458 3.12232 8.55246 6.71978 6.58403 7.73793C8.89184 8.62033 8.95972 13.2359 4.41198 13.2359ZM2.0363 7.12704H4.47986C6.17677 7.12704 6.44828 5.09074 4.27623 5.09074H2.0363V7.12704ZM4.34411 9.16334H2.0363V11.1996H4.27623C6.3804 11.1996 6.24465 9.16334 4.34411 9.16334Z" fill="white"/>
</svg>
