<svg width="150" height="73" viewBox="0 0 150 73" fill="none" xmlns="http://www.w3.org/2000/svg">
<path d="M78.6667 22C78.6667 24.0167 77.0167 25.6667 75 25.6667C72.9834 25.6667 71.3334 24.0167 71.3334 22C71.3334 19.9834 72.9834 18.3334 75 18.3334C77.0167 18.3334 78.6667 19.9834 78.6667 22ZM65.8334 18.3334C63.8167 18.3334 62.1667 19.9834 62.1667 22C62.1667 24.0167 63.8167 25.6667 65.8334 25.6667C67.85 25.6667 69.5 24.0167 69.5 22C69.5 19.9834 67.85 18.3334 65.8334 18.3334ZM84.1667 18.3334C82.15 18.3334 80.5 19.9834 80.5 22C80.5 24.0167 82.15 25.6667 84.1667 25.6667C86.1834 25.6667 87.8334 24.0167 87.8334 22C87.8334 19.9834 86.1834 18.3334 84.1667 18.3334ZM79.5834 11C77.5667 11 75.9167 12.65 75.9167 14.6667C75.9167 16.6834 77.5667 18.3334 79.5834 18.3334C81.6 18.3334 83.25 16.6834 83.25 14.6667C83.25 12.65 81.6 11 79.5834 11ZM70.4167 11C68.4 11 66.75 12.65 66.75 14.6667C66.75 16.6834 68.4 18.3334 70.4167 18.3334C72.4334 18.3334 74.0834 16.6834 74.0834 14.6667C74.0834 12.65 72.4334 11 70.4167 11ZM79.5834 25.6667C77.5667 25.6667 75.9167 27.3167 75.9167 29.3334C75.9167 31.35 77.5667 33 79.5834 33C81.6 33 83.25 31.35 83.25 29.3334C83.25 27.3167 81.6 25.6667 79.5834 25.6667ZM70.4167 25.6667C68.4 25.6667 66.75 27.3167 66.75 29.3334C66.75 31.35 68.4 33 70.4167 33C72.4334 33 74.0834 31.35 74.0834 29.3334C74.0834 27.3167 72.4334 25.6667 70.4167 25.6667ZM75 33C72.9834 33 71.3334 34.65 71.3334 36.6667C71.3334 38.6834 72.9834 40.3334 75 40.3334C77.0167 40.3334 78.6667 38.6834 78.6667 36.6667C78.6667 34.65 77.0167 33 75 33ZM79.4 4.03337L77.9334 1.83337C73.9 3.66671 73.5334 10.2667 73.5334 11H76.2834C76.4667 9.53337 77.0167 4.95004 79.4 4.03337Z" fill="white"/>
<path d="M24.3135 56.0625H33.498V58.3389H27.0029V61.3184H32.6895V63.5684H27.0029V69H24.3135V56.0625ZM40.3184 59.1914C40.3652 59.1914 40.4033 59.1943 40.4326 59.2002C40.4678 59.2002 40.541 59.2031 40.6523 59.209V61.7754C40.4941 61.7578 40.3535 61.7461 40.2305 61.7402C40.1074 61.7344 40.0078 61.7314 39.9316 61.7314C38.9238 61.7314 38.2471 62.0596 37.9014 62.7158C37.708 63.085 37.6113 63.6533 37.6113 64.4209V69H35.0889V59.4199H37.4795V61.0898C37.8662 60.4512 38.2031 60.0146 38.4902 59.7803C38.959 59.3877 39.5684 59.1914 40.3184 59.1914ZM44.625 59.4199V65.1943C44.625 65.7393 44.6895 66.1494 44.8184 66.4248C45.0469 66.9111 45.4951 67.1543 46.1631 67.1543C47.0186 67.1543 47.6045 66.8086 47.9209 66.1172C48.085 65.7422 48.167 65.2471 48.167 64.6318V59.4199H50.707V69H48.2725V67.6465C48.249 67.6758 48.1904 67.7637 48.0967 67.9102C48.0029 68.0566 47.8916 68.1855 47.7627 68.2969C47.3701 68.6484 46.9893 68.8887 46.6201 69.0176C46.2568 69.1465 45.8291 69.2109 45.3369 69.2109C43.9189 69.2109 42.9639 68.7012 42.4717 67.6816C42.1963 67.1191 42.0586 66.29 42.0586 65.1943V59.4199H44.625ZM55.708 58.2773H53.168V55.9658H55.708V58.2773ZM53.168 59.4199H55.708V69H53.168V59.4199ZM57.1582 61.292V59.5078H58.4941V56.8359H60.9727V59.5078H62.5283V61.292H60.9727V66.3545C60.9727 66.7471 61.0225 66.9932 61.1221 67.0928C61.2217 67.1865 61.5264 67.2334 62.0361 67.2334C62.1123 67.2334 62.1914 67.2334 62.2734 67.2334C62.3613 67.2275 62.4463 67.2217 62.5283 67.2158V69.0879L61.3418 69.1318C60.1582 69.1729 59.3496 68.9678 58.916 68.5166C58.6348 68.2295 58.4941 67.7871 58.4941 67.1895V61.292H57.1582ZM71.9766 58.2949V61.1514H75.1582C75.7266 61.1514 76.1865 61.0459 76.5381 60.835C76.8955 60.6182 77.0742 60.2373 77.0742 59.6924C77.0742 59.0889 76.8398 58.6904 76.3711 58.4971C75.9668 58.3623 75.4512 58.2949 74.8242 58.2949H71.9766ZM71.9766 63.2959V66.75H75.1582C75.7266 66.75 76.1689 66.6738 76.4854 66.5215C77.0596 66.2402 77.3467 65.7012 77.3467 64.9043C77.3467 64.2305 77.0684 63.7676 76.5117 63.5156C76.2012 63.375 75.7646 63.3018 75.2021 63.2959H71.9766ZM75.6855 56.0449C77.2734 56.0684 78.3984 56.5283 79.0605 57.4248C79.459 57.9756 79.6582 58.6348 79.6582 59.4023C79.6582 60.1934 79.459 60.8291 79.0605 61.3096C78.8379 61.5791 78.5098 61.8252 78.0762 62.0479C78.7383 62.2881 79.2363 62.6689 79.5703 63.1904C79.9102 63.7119 80.0801 64.3447 80.0801 65.0889C80.0801 65.8564 79.8867 66.5449 79.5 67.1543C79.2539 67.5586 78.9463 67.8984 78.5771 68.1738C78.1611 68.4902 77.6689 68.707 77.1006 68.8242C76.5381 68.9414 75.9258 69 75.2637 69H69.3926V56.0449H75.6855ZM87.4365 64.3418C87.2783 64.4414 87.1172 64.5234 86.9531 64.5879C86.7949 64.6465 86.5752 64.7021 86.2939 64.7549L85.7314 64.8604C85.2041 64.9541 84.8262 65.0684 84.5977 65.2031C84.2109 65.4316 84.0176 65.7861 84.0176 66.2666C84.0176 66.6943 84.1348 67.0049 84.3691 67.1982C84.6094 67.3857 84.8994 67.4795 85.2393 67.4795C85.7783 67.4795 86.2734 67.3213 86.7246 67.0049C87.1816 66.6885 87.4189 66.1113 87.4365 65.2734V64.3418ZM85.916 63.1729C86.3789 63.1143 86.71 63.041 86.9092 62.9531C87.2666 62.8008 87.4453 62.5635 87.4453 62.2412C87.4453 61.8486 87.3076 61.5791 87.0322 61.4326C86.7627 61.2803 86.3643 61.2041 85.8369 61.2041C85.2451 61.2041 84.8262 61.3506 84.5801 61.6436C84.4043 61.8604 84.2871 62.1533 84.2285 62.5225H81.8115C81.8643 61.6846 82.0986 60.9961 82.5146 60.457C83.1768 59.6133 84.3135 59.1914 85.9248 59.1914C86.9736 59.1914 87.9053 59.3994 88.7197 59.8154C89.5342 60.2314 89.9414 61.0166 89.9414 62.1709V66.5654C89.9414 66.8701 89.9473 67.2393 89.959 67.6729C89.9766 68.001 90.0264 68.2236 90.1084 68.3408C90.1904 68.458 90.3135 68.5547 90.4775 68.6309V69H87.7529C87.6768 68.8066 87.624 68.625 87.5947 68.4551C87.5654 68.2852 87.542 68.0918 87.5244 67.875C87.1787 68.25 86.7803 68.5693 86.3291 68.833C85.79 69.1436 85.1807 69.2988 84.501 69.2988C83.6338 69.2988 82.916 69.0527 82.3477 68.5605C81.7852 68.0625 81.5039 67.3594 81.5039 66.4512C81.5039 65.2734 81.958 64.4209 82.8662 63.8936C83.3643 63.6064 84.0967 63.4014 85.0635 63.2783L85.916 63.1729ZM94.125 65.9414C94.1777 66.3867 94.292 66.7031 94.4678 66.8906C94.7783 67.2246 95.3525 67.3916 96.1904 67.3916C96.6826 67.3916 97.0723 67.3184 97.3594 67.1719C97.6523 67.0254 97.7988 66.8057 97.7988 66.5127C97.7988 66.2314 97.6816 66.0176 97.4473 65.8711C97.2129 65.7246 96.3428 65.4727 94.8369 65.1152C93.7529 64.8457 92.9883 64.5088 92.543 64.1045C92.0977 63.7061 91.875 63.1318 91.875 62.3818C91.875 61.4971 92.2207 60.7383 92.9121 60.1055C93.6094 59.4668 94.5879 59.1475 95.8477 59.1475C97.043 59.1475 98.0156 59.3877 98.7656 59.8682C99.5215 60.3428 99.9551 61.166 100.066 62.3379H97.5615C97.5264 62.0156 97.4355 61.7607 97.2891 61.5732C97.0137 61.2334 96.5449 61.0635 95.8828 61.0635C95.3379 61.0635 94.9482 61.1484 94.7139 61.3184C94.4854 61.4883 94.3711 61.6875 94.3711 61.916C94.3711 62.2031 94.4941 62.4111 94.7402 62.54C94.9863 62.6748 95.8564 62.9062 97.3506 63.2344C98.3467 63.4688 99.0938 63.8232 99.5918 64.2979C100.084 64.7783 100.33 65.3789 100.33 66.0996C100.33 67.0488 99.9756 67.8252 99.2666 68.4287C98.5635 69.0264 97.4736 69.3252 95.9971 69.3252C94.4912 69.3252 93.3779 69.0088 92.6572 68.376C91.9424 67.7373 91.585 66.9258 91.585 65.9414H94.125ZM102.167 56.0889H104.628V63.0674L107.748 59.4639H110.851L107.502 63.1289L110.982 69H107.959L105.665 64.9043L104.628 65.9854V69H102.167V56.0889ZM115.992 61.2305C115.412 61.2305 114.961 61.4121 114.639 61.7754C114.322 62.1387 114.123 62.6309 114.041 63.252H117.935C117.894 62.5898 117.691 62.0889 117.328 61.749C116.971 61.4033 116.525 61.2305 115.992 61.2305ZM115.992 59.165C116.789 59.165 117.507 59.3145 118.146 59.6133C118.784 59.9121 119.312 60.3838 119.728 61.0283C120.103 61.5967 120.346 62.2559 120.457 63.0059C120.521 63.4453 120.548 64.0781 120.536 64.9043H113.979C114.015 65.8652 114.316 66.5391 114.885 66.9258C115.23 67.166 115.646 67.2861 116.133 67.2861C116.648 67.2861 117.067 67.1396 117.39 66.8467C117.565 66.6885 117.721 66.4688 117.855 66.1875H120.413C120.349 66.7559 120.053 67.333 119.525 67.9189C118.705 68.8506 117.557 69.3164 116.08 69.3164C114.861 69.3164 113.786 68.9238 112.854 68.1387C111.923 67.3535 111.457 66.0762 111.457 64.3066C111.457 62.6484 111.876 61.377 112.714 60.4922C113.558 59.6074 114.65 59.165 115.992 59.165ZM121.248 61.292V59.5078H122.584V56.8359H125.062V59.5078H126.618V61.292H125.062V66.3545C125.062 66.7471 125.112 66.9932 125.212 67.0928C125.312 67.1865 125.616 67.2334 126.126 67.2334C126.202 67.2334 126.281 67.2334 126.363 67.2334C126.451 67.2275 126.536 67.2217 126.618 67.2158V69.0879L125.432 69.1318C124.248 69.1729 123.439 68.9678 123.006 68.5166C122.725 68.2295 122.584 67.7871 122.584 67.1895V61.292H121.248Z" fill="white"/>
</svg>
