<svg width="39" height="39" viewBox="0 0 39 39" fill="none" xmlns="http://www.w3.org/2000/svg">
<path fill-rule="evenodd" clip-rule="evenodd" d="M2.4375 19.5001C2.4375 19.1768 2.5659 18.8668 2.79446 18.6383C3.02302 18.4097 3.33302 18.2813 3.65625 18.2813H32.4017L24.7309 10.6129C24.502 10.3841 24.3735 10.0737 24.3735 9.75007C24.3735 9.42643 24.502 9.11605 24.7309 8.8872C24.9597 8.65835 25.2701 8.52979 25.5938 8.52979C25.9174 8.52979 26.2278 8.65835 26.4566 8.8872L36.2066 18.6372C36.3201 18.7504 36.4102 18.8849 36.4716 19.033C36.5331 19.181 36.5647 19.3398 36.5647 19.5001C36.5647 19.6604 36.5331 19.8191 36.4716 19.9672C36.4102 20.1152 36.3201 20.2497 36.2066 20.3629L26.4566 30.1129C26.2278 30.3418 25.9174 30.4704 25.5938 30.4704C25.2701 30.4704 24.9597 30.3418 24.7309 30.1129C24.502 29.8841 24.3735 29.5737 24.3735 29.2501C24.3735 28.9264 24.502 28.616 24.7309 28.3872L32.4017 20.7188H3.65625C3.33302 20.7188 3.02302 20.5904 2.79446 20.3619C2.5659 20.1333 2.4375 19.8233 2.4375 19.5001Z" fill="white"/>
</svg>
