<svg width="18" height="17" viewBox="0 0 18 17" fill="none" xmlns="http://www.w3.org/2000/svg">
<g clip-path="url(#clip0_26_210)">
<path d="M15.9557 0H2.07391C1.40893 0 0.871216 0.524984 0.871216 1.17405V15.1132C0.871216 15.7622 1.40893 16.2904 2.07391 16.2904H15.9557C16.6207 16.2904 17.1616 15.7622 17.1616 15.1163V1.17405C17.1616 0.524984 16.6207 0 15.9557 0ZM5.70425 13.8818H3.28614V6.10572H5.70425V13.8818ZM4.49519 5.04621C3.71885 5.04621 3.09206 4.41941 3.09206 3.64625C3.09206 2.87309 3.71885 2.24629 4.49519 2.24629C5.26835 2.24629 5.89515 2.87309 5.89515 3.64625C5.89515 4.41622 5.26835 5.04621 4.49519 5.04621ZM14.7531 13.8818H12.3381V10.102C12.3381 9.20153 12.3222 8.0402 11.0813 8.0402C9.82457 8.0402 9.63367 9.02335 9.63367 10.0383V13.8818H7.22193V6.10572H9.53822V7.16841H9.57003C9.89139 6.55752 10.6805 5.91163 11.8545 5.91163C14.3012 5.91163 14.7531 7.52158 14.7531 9.61515V13.8818Z" fill="#3FA3FF"/>
</g>
<defs>
<clipPath id="clip0_26_210">
<rect width="16.2904" height="16.2904" fill="white" transform="translate(0.871216)"/>
</clipPath>
</defs>
</svg>
