<svg width="17" height="17" viewBox="0 0 17 17" fill="none" xmlns="http://www.w3.org/2000/svg">
<path d="M10.645 6.22616C12.2688 7.8516 12.2465 10.4576 10.6548 12.0581C10.6518 12.0614 10.6483 12.0649 10.645 12.0682L8.81871 13.8945C7.20792 15.5053 4.58726 15.505 2.97671 13.8945C1.36592 12.284 1.36592 9.66299 2.97671 8.05247L3.98515 7.04403C4.25257 6.77661 4.71311 6.95435 4.72692 7.33227C4.74453 7.81391 4.8309 8.29779 4.99027 8.76508C5.04424 8.9233 5.00568 9.09833 4.88745 9.21655L4.53179 9.57221C3.77012 10.3339 3.74623 11.5741 4.5004 12.3432C5.26201 13.1199 6.51384 13.1245 7.2813 12.3571L9.10761 10.531C9.87376 9.76487 9.87055 8.52652 9.10761 7.76357C9.00702 7.66318 8.90571 7.58518 8.82657 7.53069C8.77058 7.49225 8.72435 7.44125 8.69157 7.38177C8.65879 7.32228 8.64037 7.25596 8.63777 7.1881C8.62701 6.90092 8.72876 6.60498 8.95569 6.37805L9.52787 5.80584C9.67792 5.65579 9.9133 5.63737 10.0873 5.75879C10.2865 5.89793 10.4732 6.05432 10.645 6.22616ZM14.4752 2.39576C12.8647 0.785182 10.244 0.784965 8.63323 2.39576L6.80692 4.22206C6.80366 4.22532 6.80013 4.22886 6.79714 4.23212C5.20548 5.83263 5.18317 8.43863 6.80692 10.0641C6.97876 10.2359 7.16538 10.3923 7.36463 10.5314C7.53861 10.6528 7.77402 10.6344 7.92404 10.4844L8.49623 9.91215C8.72316 9.68522 8.82491 9.38928 8.81415 9.1021C8.81155 9.03424 8.79312 8.96792 8.76034 8.90843C8.72756 8.84895 8.68133 8.79795 8.62535 8.75951C8.54621 8.70502 8.44489 8.62702 8.34431 8.52663C7.58136 7.76368 7.57816 6.52533 8.34431 5.75917L10.1706 3.93314C10.9381 3.16568 12.1899 3.17031 12.9515 3.947C13.7057 4.71612 13.6818 5.95632 12.9201 6.71799L12.5645 7.07365C12.4462 7.19187 12.4077 7.3669 12.4616 7.52512C12.621 7.9924 12.7074 8.47629 12.725 8.95793C12.7388 9.33585 13.1993 9.51359 13.4668 9.24617L14.4752 8.23773C16.086 6.62724 16.086 4.00627 14.4752 2.39576Z" fill="#B7FF95"/>
</svg>
