<svg width="17" height="17" viewBox="0 0 17 17" fill="none" xmlns="http://www.w3.org/2000/svg">
<path d="M16.4185 4.89436C16.4185 4.89436 16.2594 3.77319 15.7695 3.28089C15.149 2.63296 14.4554 2.62979 14.1372 2.59167C11.8591 2.42651 8.43879 2.42651 8.43879 2.42651H8.43242C8.43242 2.42651 5.01207 2.42651 2.73396 2.59167C2.41579 2.62979 1.72218 2.63296 1.10174 3.28089C0.611759 3.77319 0.455855 4.89436 0.455855 4.89436C0.455855 4.89436 0.290405 6.21245 0.290405 7.52737V8.7597C0.290405 10.0746 0.452673 11.3927 0.452673 11.3927C0.452673 11.3927 0.611759 12.5139 1.09856 13.0062C1.719 13.6541 2.53352 13.6319 2.89623 13.7017C4.20074 13.8256 8.4356 13.8637 8.4356 13.8637C8.4356 13.8637 11.8591 13.8574 14.1372 13.6954C14.4554 13.6573 15.149 13.6541 15.7695 13.0062C16.2594 12.5139 16.4185 11.3927 16.4185 11.3927C16.4185 11.3927 16.5808 10.0778 16.5808 8.7597V7.52737C16.5808 6.21245 16.4185 4.89436 16.4185 4.89436ZM6.75247 10.2557V5.68521L11.1528 7.97837L6.75247 10.2557Z" fill="#FF5757"/>
</svg>
